{"title":"Snake City S02E06 Into the Snake Pit HDTV x264-JIVE","uid":12810369,"size":474882737,"categoryP":"video","categoryS":"tv_shows","magnet":"?xt=urn:btih:66bc13958efb87915ff257c163e9eb588c2d1ed2&amp;dn=Snake+City+S02E06+Into+the+Snake+Pit+HDTV+x264-JIVE&amp;tr=udp%3A%2F%2Ftracker.leechers-paradise.org%3A6969&amp;tr=udp%3A%2F%2Fzer0day.ch%3A1337&amp;tr=udp%3A%2F%2Fopen.demonii.com%3A1337&amp;tr=udp%3A%2F%2Ftracker.coppersurfer.tk%3A6969&amp;tr=udp%3A%2F%2Fexodus.desync.com%3A6969","seeders":1,"leechers":0,"uploader":"Mulva1989","files":1,"time":1448172526,"description":"Snake City S02E06 Into the Snake Pit HDTV x264-JIVE\r\n\r\nSnake-catchers Simon Keys and Siouxsie Gillett are faced with a tricky situation — a woman spotted a large snake slithering around in her garage and is having trouble locating it. From her description, the snake sounds like it could be a black mamba, but Simon and Siouxsie can’t confirm without getting up close and personal with the deadly intruder. If it is a black mamba, the slightest mistake could be fatal, and without access to anti-venom a bite will result in death.\r\n\r\nScreens @ \nhttp://extraimago.com/images/2015/11/22/Snake.City.S02E06.Into.the.Snake.Pit.HDTVx264-JIVE.mp4_snapshot_05.23_2015.11.22_05.58.24.jpg \nhttp://extraimago.com/images/2015/11/22/Snake.City.S02E06.Into.the.Snake.Pit.HDTVx264-JIVE.mp4.jpg\r\n\r\nFormat : MPEG-4\r\nFormat profile : QuickTime\r\nCodec ID : qt \r\nFile size : 453 MiB\r\nDuration : 43mn 56s\r\nOverall bit rate mode : Constant\r\nOverall bit rate : 1 441 Kbps\r\nLaw rating : TV-14\r\nWriting application : Lavf56.1.100\r\n\r\nVideo\r\nID : 1\r\nFormat : AVC\r\nFormat/Info : Advanced Video Codec\r\nFormat profile :   \r\nFormat settings, CABAC : Yes\r\nFormat settings, ReFrames : 4 frames\r\nFormat settings, GOP : M=1, N=60\r\nCodec ID : avc1\r\nCodec ID/Info : Advanced Video Coding\r\nDuration : 43mn 56s\r\nBit rate mode : Constant\r\nBit rate : 1 300 Kbps\r\nWidth : 1 024 pixels\r\nHeight : 576 pixels\r\nDisplay aspect ratio : 16:9\r\nFrame rate mode : Variable\r\nFrame rate : 29.970 fps\r\nMinimum frame rate : 26.801 fps\r\nMaximum frame rate : 30.303 fps\r\nColor space : YUV\r\nChroma subsampling : 4:2:0\r\nBit depth : 8 bits\r\nScan type : Progressive\r\nBits/(Pixel*Frame) : 0.074\r\nStream size : 411 MiB (91%)\r\nLanguage : English\r\nColor range : Limited\r\n\r\nAudio\r\nID : 2\r\nFormat : AAC\r\nFormat/Info : Advanced Audio Codec\r\nFormat profile : LC\r\nCodec ID : 40\r\nDuration : 43mn 56s\r\nBit rate mode : Constant\r\nBit rate : 126 Kbps\r\nChannel(s) : 2 channels\r\nChannel positions : Front: L R\r\nSampling rate : 44.1 KHz\r\nCompression mode : Lossy\r\nStream size : 39.5 MiB (9%)\r\nLanguage : English\r\n\r\nText #1\r\nID : 1-CC1\r\nFormat : EIA-608\r\nMuxing mode : SCTE 128 / DTVCC Transport\r\nMuxing mode, more info : Muxed in Video #1\r\nDuration : 43mn 56s\r\nBit rate mode : Constant\r\nStream size : 0.00 Byte (0%)\r\nEncoded stream size : 0.00 Byte (0%)\r\n\r\nText #2\r\nID : 1-1\r\nFormat : EIA-708\r\nMuxing mode : SCTE 128 / DTVCC Transport\r\nMuxing mode, more info : Muxed in Video #1\r\nDuration : 43mn 56s\r\nBit rate mode : Constant\r\nStream size : 0.00 Byte (0%)\r\nEncoded stream size : 0.00 Byte (0%)","torrent":{"xt":"urn:btih:66bc13958efb87915ff257c163e9eb588c2d1ed2","amp;dn":"Snake+City+S02E06+Into+the+Snake+Pit+HDTV+x264-JIVE","amp;tr":["udp%3A%2F%2Ftracker.leechers-paradise.org%3A6969","udp%3A%2F%2Fzer0day.ch%3A1337","udp%3A%2F%2Fopen.demonii.com%3A1337","udp%3A%2F%2Ftracker.coppersurfer.tk%3A6969","udp%3A%2F%2Fexodus.desync.com%3A6969"],"infoHash":"66bc13958efb87915ff257c163e9eb588c2d1ed2","infoHashBuffer":{"type":"Buffer","data":[102,188,19,149,142,251,135,145,95,242,87,193,99,233,235,88,140,45,30,210]},"announce":[],"urlList":[]}}